<svg width="16" height="16" viewBox="0 0 16 16" fill="none" xmlns="http://www.w3.org/2000/svg">
<path d="M2.00944 1.33252C1.64144 1.33212 1.34344 1.63099 1.34277 1.99919C1.34211 2.36739 1.64144 2.66545 2.00944 2.66585C2.50811 2.66639 2.81877 2.89632 3.0721 3.31172C3.1921 3.50939 3.33877 3.99432 3.4681 4.66585C3.66277 5.68178 4.36344 9.20752 4.36344 9.20752C4.60078 10.3936 5.73811 11.3325 6.94678 11.3325H11.0508C12.2601 11.3325 13.3974 10.3936 13.6348 9.20752C13.6348 9.20752 14.6761 4.25392 14.6761 3.99919C14.6761 3.63099 14.3774 3.33252 14.0094 3.33252C13.8021 3.33252 4.68144 3.33825 4.53011 3.33252C4.49478 3.21045 4.39077 2.91119 4.23877 2.64505C3.77677 1.83659 3.02944 1.33365 2.00944 1.33252ZM6.34277 12.6658C5.79077 12.6658 5.34277 13.1136 5.34277 13.6658C5.34277 14.2181 5.79077 14.6658 6.34277 14.6658C6.89477 14.6658 7.34277 14.2181 7.34277 13.6658C7.34277 13.1136 6.89477 12.6658 6.34277 12.6658ZM11.6761 12.6658C11.1241 12.6658 10.6761 13.1136 10.6761 13.6658C10.6761 14.2181 11.1241 14.6658 11.6761 14.6658C12.2281 14.6658 12.6761 14.2181 12.6761 13.6658C12.6761 13.1136 12.2281 12.6658 11.6761 12.6658Z" fill="#FCFCFD"/>
</svg>
