<svg width="24" height="24" viewBox="0 0 24 24" fill="none" xmlns="http://www.w3.org/2000/svg">
<path d="M21.7875 15.0424C21.1746 14.5896 20.4856 14.2501 19.7531 14.0402C19.7531 14.0314 19.7531 14.0226 19.7531 14.0138V13.0913C19.7548 12.0169 19.5306 10.9543 19.095 9.9722C19.9094 9.21754 20.5593 8.30285 21.0039 7.28542C21.4485 6.26798 21.6782 5.16972 21.6788 4.05939C21.6788 3.97236 21.6442 3.8889 21.5827 3.82737C21.5211 3.76583 21.4377 3.73126 21.3506 3.73126C20.2667 3.73247 19.1941 3.95181 18.1967 4.3762C17.1993 4.8006 16.2975 5.42138 15.5451 6.20157C14.4488 5.63526 13.233 5.33958 11.9991 5.33925C10.7652 5.33893 9.54922 5.63396 8.45269 6.1997C7.70023 5.42026 6.79872 4.80007 5.80176 4.37602C4.80481 3.95196 3.73277 3.7327 2.64938 3.73126C2.56236 3.73126 2.4789 3.76583 2.41736 3.82737C2.35583 3.8889 2.32126 3.97236 2.32126 4.05939C2.32179 5.16971 2.55155 6.26797 2.99614 7.2854C3.44073 8.30283 4.09058 9.21752 4.90501 9.9722C4.46943 10.9543 4.2452 12.0169 4.24688 13.0913V14.0138C4.24688 14.0228 4.24688 14.0314 4.24688 14.0402C3.51436 14.2501 2.82535 14.5895 2.21251 15.0424C2.17664 15.0673 2.1461 15.0991 2.12268 15.1359C2.09926 15.1728 2.08343 15.2139 2.07611 15.257C2.0688 15.3 2.07014 15.3441 2.08007 15.3866C2.09 15.4291 2.10832 15.4692 2.13395 15.5045C2.15957 15.5399 2.192 15.5698 2.22932 15.5924C2.26664 15.6151 2.3081 15.6301 2.35128 15.6365C2.39447 15.6429 2.4385 15.6407 2.4808 15.6299C2.5231 15.6191 2.56282 15.5999 2.59763 15.5736C3.10916 15.1957 3.67923 14.9043 4.28513 14.7111C4.34307 15.2274 4.46566 15.7343 4.65001 16.2201C3.92573 16.6396 3.29223 17.1992 2.78644 17.8661C2.75931 17.9001 2.73921 17.9392 2.7273 17.981C2.71539 18.0228 2.71191 18.0666 2.71707 18.1098C2.72223 18.1529 2.73591 18.1947 2.75734 18.2325C2.77876 18.2703 2.80749 18.3035 2.84186 18.3302C2.87623 18.3568 2.91555 18.3764 2.95754 18.3877C2.99953 18.399 3.04334 18.4018 3.08644 18.3961C3.12954 18.3903 3.17107 18.376 3.2086 18.354C3.24613 18.3321 3.27892 18.3029 3.30507 18.2681C3.74479 17.688 4.29166 17.1976 4.91607 16.8234C5.4368 17.8582 6.23451 18.7282 7.22037 19.3365C8.20624 19.9448 9.34158 20.2675 10.5 20.2688H13.5C14.6578 20.2675 15.7926 19.9452 16.7782 19.3375C17.7637 18.7298 18.5614 17.8606 19.0824 16.8266C19.7075 17.1991 20.255 17.6886 20.6949 18.2681C20.7487 18.3355 20.8269 18.379 20.9125 18.3892C20.9981 18.3995 21.0843 18.3756 21.1524 18.3228C21.2205 18.2699 21.2652 18.1924 21.2766 18.107C21.288 18.0215 21.2654 17.935 21.2136 17.8661C20.7078 17.1991 20.0742 16.6396 19.3498 16.2203C19.5336 15.7346 19.6556 15.2277 19.713 14.7116C20.3189 14.9049 20.8889 15.1963 21.4005 15.5741C21.4353 15.6005 21.475 15.6196 21.5173 15.6304C21.5596 15.6412 21.6037 15.6435 21.6469 15.6371C21.69 15.6306 21.7315 15.6156 21.7688 15.593C21.8061 15.5703 21.8386 15.5405 21.8642 15.5051C21.8898 15.4698 21.9081 15.4297 21.9181 15.3871C21.928 15.3446 21.9293 15.3006 21.922 15.2575C21.9147 15.2145 21.8989 15.1733 21.8755 15.1365C21.852 15.0996 21.8215 15.0678 21.7856 15.0429L21.7875 15.0424ZM18.0988 8.31357C17.8063 7.94204 17.4808 7.5977 17.1263 7.28476C17.6274 6.84273 18.2528 6.56625 18.9171 6.49314C18.8426 7.17092 18.5563 7.80795 18.0988 8.31357ZM18.7926 9.35682C18.6991 9.18657 18.5991 9.01932 18.4926 8.85507C19.1969 8.1292 19.5912 7.15771 19.5919 6.14626C19.5919 6.05924 19.5573 5.97578 19.4958 5.91424C19.4342 5.85271 19.3508 5.81814 19.2638 5.81814C18.2797 5.81956 17.3326 6.19304 16.6125 6.86364C16.4102 6.71364 16.3086 6.6467 16.1333 6.53626C17.4392 5.24308 19.1783 4.4802 21.0143 4.3952C20.9287 6.27062 20.1346 8.0437 18.7924 9.35626L18.7926 9.35682ZM15.7363 7.06089C15.4572 7.46699 15.0624 7.77975 14.6032 7.95852C14.144 8.13729 13.6416 8.17381 13.1614 8.06332C12.6811 7.95283 12.2452 7.70045 11.9103 7.33897C11.5754 6.9775 11.357 6.52364 11.2834 6.03639C12.8407 5.8713 14.4084 6.23194 15.7371 7.06089H15.7363ZM2.98519 4.3952C4.82054 4.48058 6.55912 5.24312 7.86507 6.53551C7.70082 6.6392 7.54032 6.74814 7.38544 6.86345C6.66616 6.19283 5.71967 5.81936 4.73626 5.81814C4.64923 5.81814 4.56577 5.85271 4.50424 5.91424C4.4427 5.97578 4.40813 6.05924 4.40813 6.14626C4.40907 7.15766 4.80353 8.129 5.50801 8.8547C5.40151 9.01689 5.30176 9.1847 5.20801 9.35645C3.86527 8.04404 3.07081 6.27084 2.98519 4.3952ZM5.90082 8.31395C5.44348 7.8085 5.15727 7.17165 5.08294 6.49407C5.74678 6.56686 6.37181 6.84332 6.87226 7.28551C6.51793 7.59782 6.19278 7.94174 5.90082 8.31301V8.31395ZM18.7596 15.9293C18.2093 15.6849 17.6151 15.5549 17.013 15.5471C16.9699 15.5488 16.9276 15.5589 16.8884 15.5769C16.8492 15.5949 16.814 15.6204 16.7846 15.6521C16.7553 15.6837 16.7325 15.7208 16.7176 15.7612C16.7026 15.8016 16.6957 15.8446 16.6973 15.8877C16.699 15.9308 16.7091 15.9732 16.7271 16.0123C16.7451 16.0515 16.7706 16.0868 16.8023 16.1161C16.8339 16.1454 16.871 16.1682 16.9114 16.1832C16.9519 16.1982 16.9949 16.205 17.0379 16.2034C17.5409 16.2175 18.0362 16.3299 18.4959 16.5343C18.0293 17.4592 17.3153 18.2365 16.4333 18.7799C15.5513 19.3233 14.5359 19.6116 13.5 19.6125H10.5C9.46317 19.6115 8.44697 19.3226 7.56458 18.7782C6.68218 18.2338 5.96822 17.4551 5.50219 16.5289C5.96255 16.3239 6.45917 16.2127 6.96301 16.2019C7.00619 16.2042 7.0494 16.1978 7.09006 16.1831C7.13072 16.1683 7.16799 16.1456 7.19966 16.1161C7.23133 16.0867 7.25675 16.0512 7.2744 16.0117C7.29205 15.9722 7.30156 15.9296 7.30238 15.8863C7.30562 15.7994 7.27423 15.7148 7.21509 15.651C7.15596 15.5872 7.07392 15.5495 6.98701 15.5462C6.38491 15.5535 5.79063 15.6835 5.24044 15.9281C5.07931 15.4861 4.97497 15.0253 4.92994 14.5569C5.51314 14.4439 6.11429 14.4635 6.68888 14.6143C6.77064 14.6387 6.85869 14.6303 6.93436 14.5909C7.01002 14.5514 7.06734 14.4841 7.09417 14.4031C7.121 14.3221 7.11522 14.2338 7.07806 14.157C7.04091 14.0802 6.97529 14.0209 6.89513 13.9916C6.24603 13.8139 5.56567 13.7819 4.90276 13.8979V13.0916C4.90012 12.0322 5.13743 10.9859 5.59688 10.0313C6.07463 9.03329 6.77885 8.16069 7.65344 7.48298C8.52802 6.80527 9.5488 6.34119 10.6344 6.1277C10.7263 6.74597 11.0023 7.32224 11.4263 7.78149C11.8503 8.24074 12.4027 8.56169 13.0117 8.70255C13.6207 8.8434 14.258 8.79764 14.8406 8.57121C15.4232 8.34479 15.9241 7.9482 16.2782 7.43307C17.1843 8.1172 17.9131 9.00862 18.4035 10.0326C18.8626 10.9867 19.0997 12.0324 19.0973 13.0913V13.8975C18.4344 13.7813 17.7539 13.8133 17.1049 13.9913C17.0238 14.0198 16.9572 14.079 16.9193 14.1562C16.8814 14.2334 16.8753 14.3223 16.9024 14.4039C16.9294 14.4855 16.9873 14.5532 17.0638 14.5926C17.1402 14.6319 17.229 14.6396 17.3111 14.6141C17.8858 14.4631 18.4871 14.4435 19.0704 14.5566C19.0253 15.0251 18.9209 15.4861 18.7596 15.9283V15.9293Z" fill="black"/>
<path d="M14.7413 10.137C14.1131 10.137 13.6022 10.7657 13.6022 11.5388C13.6022 12.3118 14.1131 12.9405 14.7413 12.9405C15.3694 12.9405 15.8801 12.3118 15.8801 11.5388C15.8801 10.7657 15.3694 10.137 14.7413 10.137ZM14.7413 12.2843C14.484 12.2843 14.2585 11.9359 14.2585 11.5388C14.2585 11.1416 14.4835 10.7933 14.7413 10.7933C14.9991 10.7933 15.2239 11.1416 15.2239 11.5388C15.2239 11.9359 14.9983 12.2843 14.7413 12.2843Z" fill="black"/>
<path d="M10.3978 11.5388C10.3978 10.7657 9.88669 10.137 9.25875 10.137C8.63081 10.137 8.11987 10.7657 8.11987 11.5388C8.11987 12.3118 8.63062 12.9405 9.25875 12.9405C9.88687 12.9405 10.3978 12.3118 10.3978 11.5388ZM8.77612 11.5388C8.77612 11.1416 9.00112 10.7933 9.25875 10.7933C9.51637 10.7933 9.74156 11.1416 9.74156 11.5388C9.74156 11.9359 9.51656 12.2843 9.25875 12.2843C9.00094 12.2843 8.77612 11.9359 8.77612 11.5388Z" fill="black"/>
<path d="M14.7413 15.0711C14.6542 15.0711 14.5708 15.1056 14.5092 15.1672C14.4477 15.2287 14.4131 15.3122 14.4131 15.3992C14.4131 15.6757 14.3033 15.9409 14.1078 16.1364C13.9123 16.3319 13.6471 16.4417 13.3706 16.4417C13.0941 16.4417 12.829 16.3319 12.6335 16.1364C12.438 15.9409 12.3281 15.6757 12.3281 15.3992V14.9625C12.7259 14.7541 13.0787 14.4693 13.3663 14.1244C13.4371 14.0387 13.4834 13.9356 13.5003 13.8258C13.5172 13.716 13.5041 13.6037 13.4624 13.5007C13.4208 13.3977 13.352 13.3079 13.2634 13.2408C13.1749 13.1737 13.0699 13.1319 12.9594 13.1196C12.3216 13.0493 11.6779 13.0493 11.04 13.1196C10.9296 13.1319 10.8247 13.1739 10.7362 13.241C10.6477 13.3082 10.579 13.3979 10.5374 13.5009C10.4958 13.6039 10.4828 13.7161 10.4997 13.8259C10.5167 13.9357 10.5629 14.0388 10.6337 14.1244C10.9214 14.4692 11.2742 14.754 11.6719 14.9625V15.3994C11.6719 15.6759 11.5621 15.941 11.3665 16.1365C11.171 16.3321 10.9059 16.4419 10.6294 16.4419C10.3529 16.4419 10.0877 16.3321 9.89223 16.1365C9.69672 15.941 9.58689 15.6759 9.58689 15.3994C9.58689 15.3124 9.55232 15.2289 9.49078 15.1674C9.42925 15.1058 9.34579 15.0713 9.25876 15.0713C9.17174 15.0713 9.08828 15.1058 9.02674 15.1674C8.96521 15.2289 8.93064 15.3124 8.93064 15.3994C8.92905 15.6485 8.98264 15.8949 9.08758 16.1209C9.19251 16.3469 9.34618 16.5468 9.53755 16.7063C9.72892 16.8659 9.95324 16.9811 10.1944 17.0436C10.4356 17.1062 10.6876 17.1145 10.9324 17.0681C11.0676 17.7503 11.4853 18.225 12 18.225C12.5147 18.225 12.9324 17.7497 13.0674 17.0678C13.1674 17.0869 13.2689 17.0968 13.3706 17.0976C13.821 17.097 14.2528 16.9179 14.5713 16.5994C14.8898 16.2809 15.0689 15.849 15.0694 15.3986C15.0692 15.3117 15.0346 15.2284 14.9731 15.167C14.9116 15.1056 14.8282 15.0711 14.7413 15.0711ZM11.1885 13.7636C11.7282 13.7093 12.2719 13.7093 12.8115 13.7636C12.5821 14.0222 12.307 14.2363 12 14.3951C11.693 14.2363 11.4179 14.0223 11.1885 13.7636ZM12 17.5688C11.8419 17.5688 11.6154 17.2819 11.5568 16.8188C11.7281 16.7057 11.8775 16.5624 11.9974 16.3958C12.1177 16.5638 12.269 16.7074 12.4431 16.8188C12.3844 17.2824 12.1581 17.5688 12 17.5688Z" fill="black"/>
</svg>
