<svg width="16" height="16" viewBox="0 0 16 16" fill="none" xmlns="http://www.w3.org/2000/svg">
<path d="M4.99968 1.99377C2.97461 1.99377 1.33301 3.63511 1.33301 5.66045C1.33301 7.78312 2.54201 9.78578 4.54134 11.6191C5.22374 12.2445 5.95848 12.7931 6.68714 13.2858C6.94254 13.4578 7.18141 13.6138 7.39554 13.7438C7.52608 13.8231 7.61214 13.8805 7.66634 13.9105C7.86768 14.0225 8.13168 14.0225 8.33301 13.9105C8.38721 13.8805 8.47328 13.8231 8.60381 13.7438C8.81794 13.6138 9.05681 13.4578 9.31221 13.2858C10.0409 12.7931 10.7756 12.2445 11.458 11.6191C13.4573 9.78578 14.6663 7.78312 14.6663 5.66045C14.6663 3.63511 13.0247 1.99377 10.9997 1.99377C9.84954 1.99377 8.72661 2.62045 8.02048 3.53512C7.33194 2.60445 6.21294 1.99377 4.99968 1.99377Z" fill="#23262F"/>
</svg>
