<svg width="16" height="16" viewBox="0 0 16 16" fill="none" xmlns="http://www.w3.org/2000/svg">
<path d="M4.9987 1.99365C2.97363 1.99365 1.33203 3.63499 1.33203 5.66033C1.33203 7.783 2.54103 9.78566 4.54036 11.619C5.22276 12.2443 5.9575 12.793 6.68616 13.2857C6.94156 13.4577 7.18043 13.6137 7.39456 13.7437C7.5251 13.823 7.61116 13.8803 7.66536 13.9103C7.8667 14.0223 8.1307 14.0223 8.33203 13.9103C8.38623 13.8803 8.4723 13.823 8.60283 13.7437C8.81696 13.6137 9.05583 13.4577 9.31123 13.2857C10.0399 12.793 10.7746 12.2443 11.457 11.619C13.4564 9.78566 14.6654 7.783 14.6654 5.66033C14.6654 3.63499 13.0238 1.99365 10.9987 1.99365C9.84856 1.99365 8.72563 2.62033 8.0195 3.535C7.33096 2.60433 6.21196 1.99365 4.9987 1.99365Z" fill="#FCFCFD"/>
</svg>
