<svg width="166" height="88" viewBox="0 0 166 88" fill="none" xmlns="http://www.w3.org/2000/svg">
<path d="M0 -1H165.689V81C165.689 85.4183 162.107 89 157.689 89H8C3.58173 89 0 85.4183 0 81V-1Z" fill="#23262F"/>
<path d="M41.9796 41.4614C41.9796 42.261 41.8632 42.9985 41.6303 43.6739C41.3974 44.3416 41.0209 44.9199 40.5007 45.409C39.9884 45.8903 39.3207 46.2669 38.4978 46.5386C37.6749 46.8103 36.6735 46.9461 35.4935 46.9461H28.3202V52H24V36H35.4935C36.6735 36 37.6749 36.1359 38.4978 36.4076C39.3207 36.6715 39.9884 37.048 40.5007 37.5371C41.0209 38.0184 41.3974 38.5929 41.6303 39.2606C41.8632 39.9282 41.9796 40.6618 41.9796 41.4614ZM37.6128 41.5313C37.6128 41.1587 37.5585 40.8404 37.4498 40.5764C37.3489 40.3047 37.1781 40.0835 36.9374 39.9127C36.6967 39.7419 36.3823 39.6177 35.9942 39.54C35.606 39.4546 35.1286 39.4119 34.5619 39.4119H28.3202V43.5342H34.5619C35.1286 43.5342 35.606 43.5032 35.9942 43.441C36.3823 43.3712 36.6967 43.2586 36.9374 43.1033C37.1781 42.9403 37.3489 42.7307 37.4498 42.4745C37.5585 42.2183 37.6128 41.9039 37.6128 41.5313Z" fill="#F6F3F1"/>
<path d="M57.607 48.9723H48.687L47.1849 52H42.3639L50.7365 36H55.5575L63.9301 52H59.1092L57.607 48.9723ZM50.2358 45.8515H56.0815L53.1703 39.9592L50.2358 45.8515Z" fill="#F6F3F1"/>
<path d="M74.5852 39.4818V52H70.2649V39.4818H63.476V36H81.3857V39.4818H74.5852Z" fill="#F6F3F1"/>
<path d="M99.3654 52L88.5706 41.0073V52H84.2504V36H88.9432L99.7496 47.0393V36H104.047V52H99.3654Z" fill="#F6F3F1"/>
<path d="M121.91 48.9723H112.99L111.488 52H106.667L115.039 36H119.86L128.233 52H123.412L121.91 48.9723ZM114.539 45.8515H120.384L117.473 39.9592L114.539 45.8515Z" fill="#F6F3F1"/>
<path d="M138.888 39.4818V52H134.568V39.4818H127.779V36H145.688V39.4818H138.888Z" fill="#F6F3F1"/>
</svg>
